# xmcd CD database file
#
# Track frame offsets:
#	150
#	18023
#	33418
#	52324
#	66631
#	83726
#	100566
#	116625
#	134409
#	154836
#
# Disc length: 2282 seconds
#
# Revision: 0
# Processed by: cddbd v1.5.1PL0 Copyright (c) Steve Scherf et al.
# Submitted via: CDex 1.51
#
DISCID=8308e80a
DTITLE=Jimmy Jackson and Pull String Angel - No Words
DYEAR=1900
DGENRE=Blues
TTITLE0=Funky Farm/Ol' Joe Clark
TTITLE1=Okie Fanokie Stomp
TTITLE2=Casadega
TTITLE3=Ghost Riders In The Sky
TTITLE4=Tastes Like Chicken
TTITLE5=Tastes Like Funky Chicken
TTITLE6=Delta Hair Lines
TTITLE7=Susie's Song
TTITLE8=Ave Maria
TTITLE9=Pull String Angel
EXTD=
EXTT0=
EXTT1=
EXTT2=
EXTT3=
EXTT4=
EXTT5=
EXTT6=
EXTT7=
EXTT8=
EXTT9=
PLAYORDER=
